# xmcd
#
# Track frame offsets: 
#        150
#        14511
#        30960
#        45397
#        62979
#        81151
#        101097
#        121638
#        141901
#        160190
#        185614
#        203675
#
# Disc length: 3026 seconds
#
# Revision: 0
# Processed by: cddbd v1.5.2PL0 Copyright (c) Steve Scherf et al.
# Submitted via: ExactAudioCopy v0.99pb4
#
DISCID=980bd00c
DTITLE=TD LIND - The Outskirts of PROSPER
DYEAR=2011
DGENRE=Blues
TTITLE0=Pushover Boy Blues
TTITLE1=Bllack Dress
TTITLE2=Coming Home
TTITLE3=Head Over Heels
TTITLE4=Goodnight From Hollywood
TTITLE5=What Will Become
TTITLE6=Outskirts Of Prosper
TTITLE7=It's Lovely
TTITLE8=Fate Fell Asleep At The Redemption
TTITLE9=Last Train For Redemption
TTITLE10=Sing to the Moon
TTITLE11=Mercy
EXTD=
EXTT0=
EXTT1=
EXTT2=
EXTT3=
EXTT4=
EXTT5=
EXTT6=
EXTT7=
EXTT8=
EXTT9=
EXTT10=
EXTT11=
PLAYORDER=
